<svg width="167" height="170" viewBox="0 0 167 170" fill="none" xmlns="http://www.w3.org/2000/svg">
<g clip-path="url(#clip0_38_463)">
<path d="M43.5745 114.017L45.1995 113.092L42.2785 107.961C29.9614 86.3221 37.6367 58.6259 59.2751 46.3089C80.9135 33.9918 109.502 41.046 121.819 62.6844L124.74 67.8161C126.964 66.5503 129.357 65.9806 132.139 66.8885L128.195 59.9608C113.834 34.7302 81.6596 25.7536 56.3435 40.164C31.0274 54.5745 22.2705 86.7365 36.681 112.053L40.6244 118.98C40.4086 116.612 41.3508 115.283 43.5745 114.017Z" fill="white" stroke="black" stroke-width="1.5873"/>
<path d="M47.6535 112.828L44.0613 114.873C41.41 116.382 40.3191 119.041 41.3889 121.716C41.8757 122.571 42.2797 121.888 42.377 122.06L57.4204 148.487C59.0756 151.395 62.5743 154.16 65.4823 152.505L67.2783 151.482L68.1336 150.995L68.9889 150.509C71.8968 148.853 72.6745 143.655 71.0192 140.747L55.9759 114.319C55.8785 114.148 55.4259 114.745 54.9877 113.975C53.4048 111.592 50.3048 111.319 47.6535 112.828Z" fill="white" stroke="black" stroke-width="1.5873"/>
<path d="M40.9099 123.461L40.1402 123.899C37.2322 125.554 36.0427 128.836 37.698 131.744L47.3374 148.678C48.9927 151.586 52.8598 153.009 55.7677 151.353L56.4519 150.964C56.4519 150.964 56.5769 149.194 56.5283 149.109L41.4849 122.681C41.4731 122.461 40.9099 123.461 40.9099 123.461Z" fill="#5AE263" stroke="black" stroke-width="1.5873"/>
<path d="M40.4717 122.691C40.606 122.728 40.7402 122.765 40.8257 122.716L40.7283 122.545L40.4717 122.691Z" fill="#CCCCCC" stroke="black" stroke-width="1.5873"/>
<path d="M134.245 69.9928C132.528 67.5731 127.878 67.1625 125.227 68.6717L121.635 70.7164C118.983 72.2256 118.55 75.6428 119.706 78.2691C120.192 79.1244 120.596 78.4415 120.694 78.6126L135.737 105.041C137.392 107.948 140.233 109.955 143.141 108.3L144.766 107.375L145.621 106.888L146.733 106.255C149.641 104.6 151.162 100.11 149.507 97.2024L134.464 70.7744C134.329 70.7376 134.732 70.8481 134.245 69.9928Z" fill="white" stroke="black" stroke-width="1.5873"/>
<path d="M134.22 70.3464L134.648 70.103C134.076 69.2964 134.22 70.3464 134.22 70.3464Z" fill="#CCCCCC" stroke="black" stroke-width="1.5873"/>
<path d="M135.845 69.4217L135.503 69.6164L134.795 69.5664L149.839 95.9944C149.887 96.0799 150.703 97.3141 150.703 97.3141L151.387 96.9247C154.295 95.2694 154.949 91.047 153.294 88.1391L143.947 71.7178C142.328 68.6757 138.753 67.7664 135.845 69.4217Z" fill="#5AE263" stroke="black" stroke-width="1.5873"/>
<path d="M149.79 95.909L134.747 69.481C134.649 69.3099 134.172 70.2613 134.172 70.2613C134.086 70.3099 134.195 70.7007 134.158 70.8349L149.494 97.7761L149.75 97.63C149.799 97.7155 149.839 95.9945 149.79 95.909Z" fill="#CCCCCC" stroke="black" stroke-width="1.5873"/>
<path d="M133.782 69.5771L133.526 69.7232L133.623 69.8942C133.708 69.8455 133.745 69.7113 133.782 69.5771Z" fill="#CCCCCC" stroke="black" stroke-width="1.5873"/>
<path d="M45.3705 112.995L48.7916 111.048C48.2785 111.34 47.6798 111.681 47.0811 112.021L45.3705 112.995Z" fill="#CCCCCC" stroke="black" stroke-width="1.5873"/>
<path d="M121.233 69.8125C120.635 70.1533 120.036 70.494 119.523 70.7862L122.858 68.8875L121.233 69.8125Z" fill="#CCCCCC" stroke="black" stroke-width="1.5873"/>
<path d="M134.562 70.1521C134.049 70.4442 133.512 70.2968 133.22 69.7837L127.768 60.2046C113.503 35.1451 81.5609 26.3764 56.587 40.5921C31.613 54.8078 22.8442 86.7501 37.1086 111.81L42.5612 121.389C42.8534 121.902 42.706 122.439 42.1928 122.731C41.6797 123.023 41.1428 122.876 40.8507 122.362L35.3981 112.783C20.5982 86.783 29.6985 53.6328 55.6133 38.8815C81.5281 24.1303 114.678 33.2306 129.478 59.2309L134.931 68.81C135.223 69.3232 135.076 69.86 134.562 70.1521Z" fill="black" stroke="black" stroke-width="1.5873"/>
<path d="M69.8902 151.694L66.6402 153.544C63.2191 155.491 58.9125 154.093 56.7704 150.329L41.2889 123.132C39.1954 119.454 40.2521 115.342 43.7587 113.346L47.0087 111.496C50.7719 109.354 55.5917 110.461 57.5391 113.882L73.0206 141.08C75.0166 144.586 73.4823 149.649 69.8902 151.694ZM44.7324 115.057C42.1665 116.517 41.4415 119.421 42.9994 122.158L58.4809 149.356C60.0875 152.178 63.1862 153.245 65.6665 151.834L68.9165 149.984C71.6534 148.426 72.7705 144.619 71.31 142.053L55.8285 114.856C54.2706 112.119 50.4627 111.795 47.9824 113.207L44.7324 115.057Z" fill="black" stroke="black" stroke-width="1.5873"/>
<path d="M58.0743 151.626L56.4493 152.551C52.7716 154.644 48.7598 152.172 46.7637 148.665L37.4164 132.244C35.2256 128.395 36.0743 124.515 39.4099 122.616L41.0349 121.691C41.5481 121.399 42.0849 121.546 42.377 122.059C42.6691 122.573 42.5218 123.109 42.0086 123.402L40.3836 124.327C37.4756 125.982 37.8125 128.961 39.1269 131.27L48.4743 147.691C49.9835 150.343 52.9098 152.301 55.4756 150.84L57.1006 149.915C57.6138 149.623 58.1506 149.77 58.4427 150.283C58.7349 150.797 58.5875 151.333 58.0743 151.626Z" fill="black" stroke="black" stroke-width="1.5873"/>
<path d="M67.5349 151.337C67.0218 151.629 66.4849 151.481 66.1928 150.968L49.1534 121.034C48.8613 120.52 49.0087 119.984 49.5218 119.691C50.035 119.399 50.5719 119.547 50.864 120.06L67.9034 149.994C68.1955 150.508 68.0481 151.044 67.5349 151.337Z" fill="black" stroke="black" stroke-width="1.5873"/>
<path d="M147.72 107.392L144.47 109.242C141.049 111.189 136.742 109.79 134.6 106.027L119.119 78.8295C117.025 75.1519 118.082 71.04 121.589 69.0439L124.839 67.194C128.602 65.0519 133.422 66.1585 135.369 69.5796L150.85 96.7773C152.847 100.284 151.312 105.347 147.72 107.392ZM122.562 70.7545C119.996 72.215 119.271 75.119 120.829 77.8559L136.311 105.054C137.917 107.876 141.016 108.943 143.496 107.531L146.746 105.681C149.483 104.123 150.6 100.317 149.14 97.751L133.658 70.5533C132.101 67.8164 128.293 67.4927 125.812 68.9045L122.562 70.7545Z" fill="black" stroke="black" stroke-width="1.5873"/>
<path d="M152.069 98.1219L151.299 98.5601C150.786 98.8522 150.249 98.7048 149.957 98.1916C149.665 97.6785 149.812 97.1416 150.325 96.8495L151.095 96.4114C153.832 94.8535 154.278 90.8627 152.818 88.2968L143.47 71.8756C142.01 69.3098 138.655 68.3887 136.003 69.8979L135.233 70.336C134.72 70.6281 134.183 70.4808 133.891 69.9676C133.599 69.4544 133.747 68.9176 134.26 68.6255L135.03 68.1873C138.622 66.1426 143.185 67.3953 145.181 70.9019L154.528 87.3232C156.67 91.0864 155.49 96.1745 152.069 98.1219Z" fill="black" stroke="black" stroke-width="1.5873"/>
<path d="M146.22 106.547C145.707 106.839 145.17 106.692 144.878 106.179L127.839 76.244C127.546 75.7308 127.694 75.194 128.207 74.9019C128.72 74.6097 129.257 74.7571 129.549 75.2703L146.589 105.205C146.881 105.718 146.733 106.255 146.22 106.547Z" fill="black" stroke="black" stroke-width="1.5873"/>
<path d="M124.799 68.9151C124.286 69.2072 123.749 69.0598 123.457 68.5466L120.536 63.415C108.608 42.4608 81.6438 35.275 60.433 47.3486C39.2222 59.4223 31.6338 86.2764 43.5614 107.231L46.4824 112.362C46.7745 112.875 46.6271 113.412 46.114 113.704C45.6008 113.996 45.064 113.849 44.7719 113.336L41.8508 108.204C29.3877 86.3092 37.3077 58.2472 59.4593 45.6381C81.6109 33.0289 109.783 40.5463 122.247 62.4413L125.168 67.573C125.46 68.0861 125.312 68.623 124.799 68.9151Z" fill="black" stroke="black" stroke-width="1.5873"/>
</g>
<defs>
<clipPath id="clip0_38_463">
<rect width="124" height="124" fill="white" transform="translate(-2.94263 61.3418) rotate(-29.6494)"/>
</clipPath>
</defs>
</svg>
